{"asset":{"version":"2.0","generator":"Blockbench 4.9.4 glTF exporter"},"scenes":[{"nodes":[31],"name":"blockbench_export"}],"scene":0,"nodes":[{"translation":[0.8749999999999999,-0.05625,0],"name":"cube","mesh":0},{"translation":[0,5.204170427930421e-18,0],"name":"part2","children":[0]},{"translation":[0.4687499999999999,-0.05625,0],"name":"cube","mesh":1},{"translation":[0,6.938893903907228e-18,0],"name":"part1","children":[2]},{"translation":[0.06874999999999976,-0.05625000000000001,0],"name":"cube","mesh":2},{"translation":[0.06874999999999976,-0.05625000000000001,0],"name":"cube","mesh":3},{"rotation":[0,0.36650122672429725,0,0.9304175679820246],"translation":[-0.05624999999999991,-0.056249999999999994,0.10624999999999998],"name":"cube","mesh":4},{"rotation":[0,0.36650122672429725,0,0.9304175679820246],"translation":[-0.1312500000000001,-0.05625,0.18125000000000002],"name":"cube","mesh":5},{"translation":[0.07500000000000018,1.734723475976807e-18,-0.07500000000000004],"name":"1p2f","children":[7]},{"translation":[0,-1.734723475976807e-18,0],"name":"1p1f","children":[6,8]},{"translation":[0.12499999999999967,-1.0408340855860843e-17,-0.10624999999999998],"name":"1palets","children":[9]},{"translation":[-0.0062500000000002,0.006249999999999999,0.0625],"name":"cube","mesh":6},{"translation":[-0.2312500000000003,-0.05625,0.0625],"name":"cube","mesh":7},{"translation":[0.10000000000000009,0,0],"name":"2p2f","children":[12]},{"translation":[1.1102230246251565e-16,1.734723475976807e-18,0],"name":"2p1f","children":[11,13]},{"translation":[0.19999999999999984,-1.0408340855860843e-17,-0.0625],"name":"2palets","children":[14]},{"translation":[-0.1312500000000002,-0.05625,0],"name":"cube","mesh":8},{"translation":[-0.23125000000000073,-0.05625,0],"name":"cube","mesh":9},{"translation":[0.10000000000000053,0,0],"name":"3p2f","children":[17]},{"translation":[1.1102230246251565e-16,1.734723475976807e-18,0],"name":"3p1f","children":[16,18]},{"translation":[0.19999999999999984,-1.0408340855860843e-17,0],"name":"3palets","children":[19]},{"translation":[-0.1312500000000002,-0.05625,-0.0625],"name":"cube","mesh":10},{"translation":[-0.2312500000000003,-0.05625,-0.0625],"name":"cube","mesh":11},{"translation":[0.10000000000000009,0,0],"name":"4p2f","children":[22]},{"name":"4p1f","children":[21,23]},{"translation":[0.19999999999999996,-8.673617379884035e-18,0.0625],"name":"4palets","children":[24]},{"translation":[2.220446049250313e-16,1.0408340855860843e-17,0],"name":"ladon","children":[4,5,10,15,20,25]},{"translation":[0.3999999999999999,5.204170427930421e-18,0],"name":"kist","children":[26]},{"translation":[0.40624999999999994,-1.734723475976807e-18,0],"name":"1part","children":[3,27]},{"name":"2part","children":[1,28]},{"translation":[-0.018749999999999996,-5.204170427930421e-18,0],"name":"Hand","children":[29]},{"children":[30]}],"bufferViews":[{"buffer":0,"byteOffset":0,"byteLength":288,"target":34962,"byteStride":12},{"buffer":0,"byteOffset":288,"byteLength":288,"target":34962,"byteStride":12},{"buffer":0,"byteOffset":576,"byteLength":192,"target":34962,"byteStride":8},{"buffer":0,"byteOffset":768,"byteLength":72,"target":34963},{"buffer":0,"byteOffset":840,"byteLength":288,"target":34962,"byteStride":12},{"buffer":0,"byteOffset":1128,"byteLength":288,"target":34962,"byteStride":12},{"buffer":0,"byteOffset":1416,"byteLength":192,"target":34962,"byteStride":8},{"buffer":0,"byteOffset":1608,"byteLength":72,"target":34963},{"buffer":0,"byteOffset":1680,"byteLength":288,"target":34962,"byteStride":12},{"buffer":0,"byteOffset":1968,"byteLength":288,"target":34962,"byteStride":12},{"buffer":0,"byteOffset":2256,"byteLength":192,"target":34962,"byteStride":8},{"buffer":0,"byteOffset":2448,"byteLength":72,"target":34963},{"buffer":0,"byteOffset":2520,"byteLength":288,"target":34962,"byteStride":12},{"buffer":0,"byteOffset":2808,"byteLength":288,"target":34962,"byteStride":12},{"buffer":0,"byteOffset":3096,"byteLength":192,"target":34962,"byteStride":8},{"buffer":0,"byteOffset":3288,"byteLength":72,"target":34963},{"buffer":0,"byteOffset":3360,"byteLength":288,"target":34962,"byteStride":12},{"buffer":0,"byteOffset":3648,"byteLength":288,"target":34962,"byteStride":12},{"buffer":0,"byteOffset":3936,"byteLength":192,"target":34962,"byteStride":8},{"buffer":0,"byteOffset":4128,"byteLength":72,"target":34963},{"buffer":0,"byteOffset":4200,"byteLength":288,"target":34962,"byteStride":12},{"buffer":0,"byteOffset":4488,"byteLength":288,"target":34962,"byteStride":12},{"buffer":0,"byteOffset":4776,"byteLength":192,"target":34962,"byteStride":8},{"buffer":0,"byteOffset":4968,"byteLength":72,"target":34963},{"buffer":0,"byteOffset":5040,"byteLength":288,"target":34962,"byteStride":12},{"buffer":0,"byteOffset":5328,"byteLength":288,"target":34962,"byteStride":12},{"buffer":0,"byteOffset":5616,"byteLength":192,"target":34962,"byteStride":8},{"buffer":0,"byteOffset":5808,"byteLength":72,"target":34963},{"buffer":0,"byteOffset":5880,"byteLength":288,"target":34962,"byteStride":12},{"buffer":0,"byteOffset":6168,"byteLength":288,"target":34962,"byteStride":12},{"buffer":0,"byteOffset":6456,"byteLength":192,"target":34962,"byteStride":8},{"buffer":0,"byteOffset":6648,"byteLength":72,"target":34963},{"buffer":0,"byteOffset":6720,"byteLength":288,"target":34962,"byteStride":12},{"buffer":0,"byteOffset":7008,"byteLength":288,"target":34962,"byteStride":12},{"buffer":0,"byteOffset":7296,"byteLength":192,"target":34962,"byteStride":8},{"buffer":0,"byteOffset":7488,"byteLength":72,"target":34963},{"buffer":0,"byteOffset":7560,"byteLength":288,"target":34962,"byteStride":12},{"buffer":0,"byteOffset":7848,"byteLength":288,"target":34962,"byteStride":12},{"buffer":0,"byteOffset":8136,"byteLength":192,"target":34962,"byteStride":8},{"buffer":0,"byteOffset":8328,"byteLength":72,"target":34963},{"buffer":0,"byteOffset":8400,"byteLength":288,"target":34962,"byteStride":12},{"buffer":0,"byteOffset":8688,"byteLength":288,"target":34962,"byteStride":12},{"buffer":0,"byteOffset":8976,"byteLength":192,"target":34962,"byteStride":8},{"buffer":0,"byteOffset":9168,"byteLength":72,"target":34963},{"buffer":0,"byteOffset":9240,"byteLength":288,"target":34962,"byteStride":12},{"buffer":0,"byteOffset":9528,"byteLength":288,"target":34962,"byteStride":12},{"buffer":0,"byteOffset":9816,"byteLength":192,"target":34962,"byteStride":8},{"buffer":0,"byteOffset":10008,"byteLength":72,"target":34963},{"buffer":0,"byteOffset":10080,"byteLength":24},{"buffer":0,"byteOffset":10104,"byteLength":96},{"buffer":0,"byteOffset":10200,"byteLength":24},{"buffer":0,"byteOffset":10224,"byteLength":96},{"buffer":0,"byteOffset":10320,"byteLength":24},{"buffer":0,"byteOffset":10344,"byteLength":96},{"buffer":0,"byteOffset":10440,"byteLength":24},{"buffer":0,"byteOffset":10464,"byteLength":96},{"buffer":0,"byteOffset":10560,"byteLength":24},{"buffer":0,"byteOffset":10584,"byteLength":96},{"buffer":0,"byteOffset":10680,"byteLength":24},{"buffer":0,"byteOffset":10704,"byteLength":96}],"buffers":[{"byteLength":10800,"uri":"data:application/octet-stream;base64,"}],"accessors":[{"bufferView":0,"componentType":5126,"count":24,"max":[-0.484375,0.10000000149011612,0.0625],"min":[-0.859375,0.01875000074505806,-0.0625],"type":"VEC3"},{"bufferView":1,"componentType":5126,"count":24,"max":[1,1,1],"min":[-1,-1,-1],"type":"VEC3"},{"bufferView":2,"componentType":5126,"count":24,"max":[0.75,0.375],"min":[0,0],"type":"VEC2"},{"bufferView":3,"componentType":5123,"count":36,"max":[23],"min":[0],"type":"SCALAR"},{"bufferView":4,"componentType":5126,"count":24,"max":[-0.08749999850988388,0.10000000149011612,0.0625],"min":[-0.4625000059604645,0.01875000074505806,-0.0625],"type":"VEC3"},{"bufferView":5,"componentType":5126,"count":24,"max":[1,1,1],"min":[-1,-1,-1],"type":"VEC3"},{"bufferView":6,"componentType":5126,"count":24,"max":[0.75,0.5],"min":[0,0.125],"type":"VEC2"},{"bufferView":7,"componentType":5123,"count":36,"max":[23],"min":[0],"type":"SCALAR"},{"bufferView":8,"componentType":5126,"count":24,"max":[0.125,0.10000000149011612,0.09375],"min":[1.1102230246251565e-16,0.01875000074505806,-0.09375],"type":"VEC3"},{"bufferView":9,"componentType":5126,"count":24,"max":[1,1,1],"min":[-1,-1,-1],"type":"VEC3"},{"bufferView":10,"componentType":5126,"count":24,"max":[0.625,0.625],"min":[0,0.25],"type":"VEC2"},{"bufferView":11,"componentType":5123,"count":36,"max":[23],"min":[0],"type":"SCALAR"},{"bufferView":12,"componentType":5126,"count":24,"max":[0,0.10000000149011612,0.0625],"min":[-0.0625,0.01875000074505806,-0.0625],"type":"VEC3"},{"bufferView":13,"componentType":5126,"count":24,"max":[1,1,1],"min":[-1,-1,-1],"type":"VEC3"},{"bufferView":14,"componentType":5126,"count":24,"max":[0.75,0.75],"min":[0.125,0.5625],"type":"VEC2"},{"bufferView":15,"componentType":5123,"count":36,"max":[23],"min":[0],"type":"SCALAR"},{"bufferView":16,"componentType":5126,"count":24,"max":[0.21250000596046448,0.08749999850988388,-0.01875000074505806],"min":[0.11874999850988388,0.02500000037252903,-0.06875000149011612],"type":"VEC3"},{"bufferView":17,"componentType":5126,"count":24,"max":[1,1,1],"min":[-1,-1,-1],"type":"VEC3"},{"bufferView":18,"componentType":5126,"count":24,"max":[0.8125,0.8125],"min":[0,0],"type":"VEC2"},{"bufferView":19,"componentType":5123,"count":36,"max":[23],"min":[0],"type":"SCALAR"},{"bufferView":20,"componentType":5126,"count":24,"max":[0.3125,0.08749999850988388,-0.01875000074505806],"min":[0.21875,0.02500000037252903,-0.06875000149011612],"type":"VEC3"},{"bufferView":21,"componentType":5126,"count":24,"max":[1,1,1],"min":[-1,-1,-1],"type":"VEC3"},{"bufferView":22,"componentType":5126,"count":24,"max":[0.8125,0.8125],"min":[0.0625,0.0625],"type":"VEC2"},{"bufferView":23,"componentType":5123,"count":36,"max":[23],"min":[0],"type":"SCALAR"},{"bufferView":24,"componentType":5126,"count":24,"max":[0.10000000149011612,0.02500000037252903,-0.03750000149011612],"min":[0.0062500000931322575,-0.03750000149011612,-0.08749999850988388],"type":"VEC3"},{"bufferView":25,"componentType":5126,"count":24,"max":[1,1,1],"min":[-1,-1,-1],"type":"VEC3"},{"bufferView":26,"componentType":5126,"count":24,"max":[0.8125,0.8125],"min":[0.25,0.25],"type":"VEC2"},{"bufferView":27,"componentType":5123,"count":36,"max":[23],"min":[0],"type":"SCALAR"},{"bufferView":28,"componentType":5126,"count":24,"max":[0.32499998807907104,0.08749999850988388,-0.03750000149011612],"min":[0.23125000298023224,0.02500000037252903,-0.08749999850988388],"type":"VEC3"},{"bufferView":29,"componentType":5126,"count":24,"max":[1,1,1],"min":[-1,-1,-1],"type":"VEC3"},{"bufferView":30,"componentType":5126,"count":24,"max":[0.8125,0.8125],"min":[0.3125,0.3125],"type":"VEC2"},{"bufferView":31,"componentType":5123,"count":36,"max":[23],"min":[0],"type":"SCALAR"},{"bufferView":32,"componentType":5126,"count":24,"max":[0.22499999403953552,0.08749999850988388,0.02500000037252903],"min":[0.13124999403953552,0.02500000037252903,-0.02500000037252903],"type":"VEC3"},{"bufferView":33,"componentType":5126,"count":24,"max":[1,1,1],"min":[-1,-1,-1],"type":"VEC3"},{"bufferView":34,"componentType":5126,"count":24,"max":[0.8125,0.8125],"min":[0,0.5],"type":"VEC2"},{"bufferView":35,"componentType":5123,"count":36,"max":[23],"min":[0],"type":"SCALAR"},{"bufferView":36,"componentType":5126,"count":24,"max":[0.32499998807907104,0.08749999850988388,0.02500000037252903],"min":[0.23125000298023224,0.02500000037252903,-0.02500000037252903],"type":"VEC3"},{"bufferView":37,"componentType":5126,"count":24,"max":[1,1,1],"min":[-1,-1,-1],"type":"VEC3"},{"bufferView":38,"componentType":5126,"count":24,"max":[0.8125,0.8125],"min":[0.5625,0.5625],"type":"VEC2"},{"bufferView":39,"componentType":5123,"count":36,"max":[23],"min":[0],"type":"SCALAR"},{"bufferView":40,"componentType":5126,"count":24,"max":[0.22499999403953552,0.08749999850988388,0.08749999850988388],"min":[0.13124999403953552,0.02500000037252903,0.03750000149011612],"type":"VEC3"},{"bufferView":41,"componentType":5126,"count":24,"max":[1,1,1],"min":[-1,-1,-1],"type":"VEC3"},{"bufferView":42,"componentType":5126,"count":24,"max":[0.8125,0.875],"min":[0,0.6875],"type":"VEC2"},{"bufferView":43,"componentType":5123,"count":36,"max":[23],"min":[0],"type":"SCALAR"},{"bufferView":44,"componentType":5126,"count":24,"max":[0.32499998807907104,0.08749999850988388,0.08749999850988388],"min":[0.23125000298023224,0.02500000037252903,0.03750000149011612],"type":"VEC3"},{"bufferView":45,"componentType":5126,"count":24,"max":[1,1,1],"min":[-1,-1,-1],"type":"VEC3"},{"bufferView":46,"componentType":5126,"count":24,"max":[0.875,0.875],"min":[0.0625,0],"type":"VEC2"},{"bufferView":47,"componentType":5123,"count":36,"max":[23],"min":[0],"type":"SCALAR"},{"bufferView":48,"componentType":5126,"count":6,"max":[0.25],"min":[0],"type":"SCALAR"},{"bufferView":49,"componentType":5126,"count":6,"max":[0,0,0,1],"min":[-0.6259234547615051,0,0,0.7798844575881958],"type":"VEC4"},{"bufferView":50,"componentType":5126,"count":6,"max":[0.25],"min":[0],"type":"SCALAR"},{"bufferView":51,"componentType":5126,"count":6,"max":[0,0.11724195629358292,0,1],"min":[-0.48965588212013245,-0.04413329064846039,-0.6639940142631531,0.5528140664100647],"type":"VEC4"},{"bufferView":52,"componentType":5126,"count":6,"max":[0.25],"min":[0],"type":"SCALAR"},{"bufferView":53,"componentType":5126,"count":6,"max":[0,0,0,1],"min":[0,0,-0.5,0.8660253882408142],"type":"VEC4"},{"bufferView":54,"componentType":5126,"count":6,"max":[0.25],"min":[0],"type":"SCALAR"},{"bufferView":55,"componentType":5126,"count":6,"max":[0,0,0,1],"min":[0,0,-0.7372773289680481,0.6755902171134949],"type":"VEC4"},{"bufferView":56,"componentType":5126,"count":6,"max":[0.25],"min":[0],"type":"SCALAR"},{"bufferView":57,"componentType":5126,"count":6,"max":[0,0,0,1],"min":[0,0,-0.5187732577323914,0.8549118638038635],"type":"VEC4"},{"bufferView":58,"componentType":5126,"count":6,"max":[0.25],"min":[0],"type":"SCALAR"},{"bufferView":59,"componentType":5126,"count":6,"max":[0,0,0,1],"min":[0,0,-0.7223639488220215,0.6915130615234375],"type":"VEC4"}],"materials":[{"pbrMetallicRoughness":{"metallicFactor":0,"roughnessFactor":1,"baseColorTexture":{"index":0}},"alphaMode":"MASK","alphaCutoff":0.05,"doubleSided":true}],"textures":[{"sampler":0,"source":0}],"samplers":[{"magFilter":9728,"minFilter":9728,"wrapS":33071,"wrapT":33071}],"images":[{"mimeType":"image/png","uri":"data:image/png;base64,"}],"meshes":[{"primitives":[{"mode":4,"attributes":{"POSITION":0,"NORMAL":1,"TEXCOORD_0":2},"indices":3,"material":0}]},{"primitives":[{"mode":4,"attributes":{"POSITION":4,"NORMAL":5,"TEXCOORD_0":6},"indices":7,"material":0}]},{"primitives":[{"mode":4,"attributes":{"POSITION":8,"NORMAL":9,"TEXCOORD_0":10},"indices":11,"material":0}]},{"primitives":[{"mode":4,"attributes":{"POSITION":12,"NORMAL":13,"TEXCOORD_0":14},"indices":15,"material":0}]},{"primitives":[{"mode":4,"attributes":{"POSITION":16,"NORMAL":17,"TEXCOORD_0":18},"indices":19,"material":0}]},{"primitives":[{"mode":4,"attributes":{"POSITION":20,"NORMAL":21,"TEXCOORD_0":22},"indices":23,"material":0}]},{"primitives":[{"mode":4,"attributes":{"POSITION":24,"NORMAL":25,"TEXCOORD_0":26},"indices":27,"material":0}]},{"primitives":[{"mode":4,"attributes":{"POSITION":28,"NORMAL":29,"TEXCOORD_0":30},"indices":31,"material":0}]},{"primitives":[{"mode":4,"attributes":{"POSITION":32,"NORMAL":33,"TEXCOORD_0":34},"indices":35,"material":0}]},{"primitives":[{"mode":4,"attributes":{"POSITION":36,"NORMAL":37,"TEXCOORD_0":38},"indices":39,"material":0}]},{"primitives":[{"mode":4,"attributes":{"POSITION":40,"NORMAL":41,"TEXCOORD_0":42},"indices":43,"material":0}]},{"primitives":[{"mode":4,"attributes":{"POSITION":44,"NORMAL":45,"TEXCOORD_0":46},"indices":47,"material":0}]}],"animations":[{"name":"ButtonPress","samplers":[{"input":48,"output":49,"interpolation":"LINEAR"},{"input":50,"output":51,"interpolation":"LINEAR"},{"input":52,"output":53,"interpolation":"LINEAR"},{"input":54,"output":55,"interpolation":"LINEAR"},{"input":56,"output":57,"interpolation":"LINEAR"},{"input":58,"output":59,"interpolation":"LINEAR"}],"channels":[{"sampler":0,"target":{"node":9,"path":"rotation"}},{"sampler":1,"target":{"node":8,"path":"rotation"}},{"sampler":2,"target":{"node":19,"path":"rotation"}},{"sampler":3,"target":{"node":18,"path":"rotation"}},{"sampler":4,"target":{"node":24,"path":"rotation"}},{"sampler":5,"target":{"node":23,"path":"rotation"}}]}]}